<svg xmlns="http://www.w3.org/2000/svg" width="17.487" height="17.487" viewBox="0 0 17.487 17.487">
  <path id="iconmonstr-spotify-1" d="M13.915,7.751C11.1,6.078,6.448,5.924,3.758,6.741a.818.818,0,0,1-.474-1.565c3.089-.938,8.223-.756,11.467,1.169a.818.818,0,1,1-.835,1.406Zm-.092,2.48a.683.683,0,0,1-.938.224A11.479,11.479,0,0,0,4.173,9.436a.681.681,0,1,1-.4-1.3A12.755,12.755,0,0,1,13.6,9.294.682.682,0,0,1,13.824,10.231Zm-1.07,2.38a.544.544,0,0,1-.749.181,10.061,10.061,0,0,0-7.681-.843.545.545,0,0,1-.243-1.062c3.331-.761,6.188-.434,8.492.975A.544.544,0,0,1,12.753,12.611ZM8.744,0a8.744,8.744,0,1,0,8.744,8.744A8.744,8.744,0,0,0,8.744,0Z" transform="translate(0 0)" fill="#fff" fill-rule="evenodd"/>
</svg>
