<svg xmlns="http://www.w3.org/2000/svg" width="15.599" height="17.998" viewBox="0 0 15.599 17.998">
  <path id="logo-tiktok-svgrepo-com" d="M61.623,19.849a4.1,4.1,0,0,1-.354-.206,4.984,4.984,0,0,1-.91-.773,4.292,4.292,0,0,1-1.025-2.116h0A2.608,2.608,0,0,1,59.294,16H56.2V27.954c0,.161,0,.319-.007.476a.39.39,0,0,1,0,.058.127.127,0,0,1,0,.027v.007A2.625,2.625,0,0,1,54.874,30.6a2.58,2.58,0,0,1-1.278.337,2.625,2.625,0,1,1,0-5.25,2.583,2.583,0,0,1,.8.128l0-3.148a5.742,5.742,0,0,0-4.428,1.293A6.067,6.067,0,0,0,48.651,25.6a5.656,5.656,0,0,0-.682,2.6,6.128,6.128,0,0,0,.332,2.052v.008a6.041,6.041,0,0,0,.839,1.531,6.282,6.282,0,0,0,1.339,1.264V33.04l.008.008a5.784,5.784,0,0,0,3.156.95,5.587,5.587,0,0,0,2.343-.518,5.879,5.879,0,0,0,1.9-1.429,5.942,5.942,0,0,0,1.036-1.722,6.452,6.452,0,0,0,.373-1.97V22.018c.037.023.537.353.537.353a7.15,7.15,0,0,0,1.842.762,10.607,10.607,0,0,0,1.891.259V20.324A4.009,4.009,0,0,1,61.623,19.849Z" transform="translate(-47.969 -16)" fill="#fff"/>
</svg>
