<svg xmlns="http://www.w3.org/2000/svg" width="18" height="14.632" viewBox="0 0 18 14.632">
  <path id="iconmonstr-twitter-1" d="M18,3.975a7.373,7.373,0,0,1-2.121.581A3.7,3.7,0,0,0,17.5,2.511a7.4,7.4,0,0,1-2.345.895A3.7,3.7,0,0,0,8.864,6.771,10.483,10.483,0,0,1,1.253,2.919,3.7,3.7,0,0,0,2.4,7.849,3.677,3.677,0,0,1,.724,7.387a3.7,3.7,0,0,0,2.962,3.667,3.7,3.7,0,0,1-1.668.063,3.7,3.7,0,0,0,3.451,2.564A7.425,7.425,0,0,1,0,15.212a10.454,10.454,0,0,0,5.661,1.659,10.443,10.443,0,0,0,10.5-10.984A7.518,7.518,0,0,0,18,3.975Z" transform="translate(0 -2.239)" fill="#fff"/>
</svg>
